<svg height="512pt" preserveAspectRatio="xMidYMid meet" viewBox="0 0 512 512" width="512pt" xmlns="http://www.w3.org/2000/svg"><g transform="matrix(.1 0 0 -.1 0 512)"><path d="m214 4790c-67-27-138-99-164-167-19-52-20-78-20-766v-712l28-60c32-67 83-117 151-149 45-21 59-21 736-24 737-4 763-2 838 45 56 35 86 70 116 133l26 55v720 720l-28 57c-30 61-74 105-140 140l-42 23-725 2c-699 2-727 2-776-17zm1422-220c56-21 53 7 54-708v-663l-25-24-24-25h-663c-715 1-687-2-708 54-6 18-10 247-10 664 0 681 0 674 50 699 32 16 1283 19 1326 3z"/><path d="m725 4445c-5-2-45-6-87-10l-78-7v-579-579h130 130v210 210h98c113 0 231 26 296 64 58 34 122 103 145 156 46 106 46 242-1 336-27 56-104 129-162 155-77 34-179 49-324 48-75 0-141-2-147-4zm326-221c18-11 44-36 57-55 20-29 23-44 20-101-4-79-23-111-89-148-37-21-57-25-129-25h-85l-3 169c-2 129 1 172 10 178 7 5 52 7 99 5 63-2 94-8 120-23z"/><path d="m2365 2753c-63-9-185-43-262-72-136-53-236-122-598-413-193-154-359-284-370-289s-220-58-464-119-455-117-470-124c-40-21-88-76-110-126-18-39-21-66-21-198 0-152 0-153-24-162-41-15-46-38-46-230 0-209 6-232 68-250 23-7 124-10 276-8l240 3-3 60c-7 180 90 386 242 511 129 105 266 149 445 142 175-8 305-64 426-183 120-118 184-260 193-433l6-102 685 2 685 3 2 90c6 172 69 311 199 440s267 185 456 185c117 0 190-17 299-72 62-31 104-61 155-113 127-126 184-255 193-432l6-103h227c248 0 282 6 305 51 18 33 22 350 5 394-6 15-24 32-45 41-19 8-35 20-35 27 0 45-84 682-95 722-19 66-63 118-130 150-51 25-60 27-184 24l-130-3-303 273c-166 150-321 283-343 294-40 22-43 22-745 23-388 1-718-1-735-3zm915-452v-189l-82-6c-167-13-1493-77-1521-74-27 3-16 14 129 129 245 194 304 232 445 280 127 43 183 47 617 48l412 1zm455 171c34-21 358-312 353-317-2-2-98-8-213-14-116-6-234-13-262-15l-53-5v185 184h73c52 0 80-5 102-18z"/><path d="m1114 1336c-227-55-395-267-395-501-1-99 14-161 58-246 87-169 268-279 458-279 311 0 560 282 517 585-44 305-344 512-638 441zm201-375c45-26 75-76 75-128 0-146-174-216-269-108-74 85-42 212 64 250 44 16 85 12 130-14z"/><path d="m3811 1339c-177-35-349-199-395-377-34-131-14-278 53-392 177-298 572-349 815-106 362 362 31 974-473 875zm151-359c23 0 88-58 100-89 16-44 11-108-12-145-22-37-90-76-131-76-70 1-145 66-156 135-7 41 18 114 47 140 25 23 90 46 115 40 11-3 28-5 37-5z"/></g></svg>